{
	"asset":{
		"generator":"Khronos glTF Blender I/O v4.4.56",
		"version":"2.0"
	},
	"extensionsUsed":[
		"KHR_materials_specular",
		"KHR_materials_ior"
	],
	"scene":0,
	"scenes":[
		{
			"name":"Scene",
			"nodes":[
				3
			]
		}
	],
	"nodes":[
		{
			"mesh":0,
			"name":"covervinyl3",
			"scale":[
				3.0364692211151123,
				3.0364646911621094,
				3.0364646911621094
			],
			"translation":[
				-0.1663980633020401,
				0.003796407487243414,
				-0.008111029863357544
			]
		},
		{
			"mesh":1,
			"name":"label3"
		},
		{
			"children":[
				1
			],
			"mesh":2,
			"name":"vinyl3",
			"scale":[
				3.0364692211151123,
				3.0364646911621094,
				3.0364646911621094
			],
			"translation":[
				0.3498017191886902,
				0.003796407487243414,
				-0.008110870607197285
			]
		},
		{
			"children":[
				0,
				2
			],
			"name":"root",
			"rotation":[
				0.7071068286895752,
				0,
				0,
				0.7071068286895752
			],
			"scale":[
				17.272504806518555,
				17.272525787353516,
				17.272525787353516
			]
		}
	],
	"materials":[
		{
			"doubleSided":true,
			"extensions":{
				"KHR_materials_specular":{
					"specularFactor":0.4000000059604645
				},
				"KHR_materials_ior":{
					"ior":1.4500000476837158
				}
			},
			"name":"covervinyl2-front",
			"pbrMetallicRoughness":{
				"baseColorTexture":{
					"index":0
				},
				"metallicFactor":0,
				"roughnessFactor":0.800000011920929
			}
		},
		{
			"doubleSided":true,
			"extensions":{
				"KHR_materials_specular":{
					"specularFactor":0.4000000059604645
				},
				"KHR_materials_ior":{
					"ior":1.4500000476837158
				}
			},
			"name":"covervinyl2-back",
			"pbrMetallicRoughness":{
				"baseColorTexture":{
					"index":1
				},
				"metallicFactor":0,
				"roughnessFactor":0.800000011920929
			}
		},
		{
			"doubleSided":true,
			"extensions":{
				"KHR_materials_specular":{
					"specularFactor":0.6000000238418579
				},
				"KHR_materials_ior":{
					"ior":1.4500000476837158
				}
			},
			"name":"label_front3",
			"pbrMetallicRoughness":{
				"baseColorTexture":{
					"index":2
				},
				"metallicFactor":0,
				"roughnessFactor":0.699999988079071
			}
		},
		{
			"doubleSided":true,
			"extensions":{
				"KHR_materials_specular":{
					"specularFactor":0.6000000238418579
				},
				"KHR_materials_ior":{
					"ior":1.4500000476837158
				}
			},
			"name":"label_back3",
			"pbrMetallicRoughness":{
				"baseColorTexture":{
					"index":3
				},
				"metallicFactor":0,
				"roughnessFactor":0.699999988079071
			}
		},
		{
			"doubleSided":true,
			"extensions":{
				"KHR_materials_specular":{
					"specularFactor":0.6000000238418579
				},
				"KHR_materials_ior":{
					"ior":1.4500000476837158
				}
			},
			"name":"label_side2",
			"pbrMetallicRoughness":{
				"baseColorFactor":[
					0.16202808916568756,
					0.4232623279094696,
					0.5906202793121338,
					1
				],
				"metallicFactor":0,
				"roughnessFactor":0.699999988079071
			}
		},
		{
			"doubleSided":true,
			"extensions":{
				"KHR_materials_specular":{
					"specularFactor":0.4000000059604645
				},
				"KHR_materials_ior":{
					"ior":1.4500000476837158
				}
			},
			"name":"vinyl",
			"normalTexture":{
				"index":4
			},
			"pbrMetallicRoughness":{
				"baseColorTexture":{
					"index":5
				},
				"metallicFactor":0,
				"roughnessFactor":0.800000011920929
			}
		}
	],
	"meshes":[
		{
			"name":"Cube.002",
			"primitives":[
				{
					"attributes":{
						"POSITION":0,
						"NORMAL":1,
						"TEXCOORD_0":2
					},
					"indices":3,
					"material":0
				},
				{
					"attributes":{
						"POSITION":4,
						"NORMAL":5,
						"TEXCOORD_0":6
					},
					"indices":7,
					"material":1
				}
			]
		},
		{
			"name":"Cylinder.005",
			"primitives":[
				{
					"attributes":{
						"POSITION":8,
						"NORMAL":9,
						"TEXCOORD_0":10
					},
					"indices":11,
					"material":2
				},
				{
					"attributes":{
						"POSITION":12,
						"NORMAL":13,
						"TEXCOORD_0":14
					},
					"indices":15,
					"material":3
				},
				{
					"attributes":{
						"POSITION":16,
						"NORMAL":17,
						"TEXCOORD_0":18
					},
					"indices":19,
					"material":4
				}
			]
		},
		{
			"name":"Cylinder.004",
			"primitives":[
				{
					"attributes":{
						"POSITION":20,
						"NORMAL":21,
						"TEXCOORD_0":22
					},
					"indices":23,
					"material":5
				}
			]
		}
	],
	"textures":[
		{
			"sampler":0,
			"source":0
		},
		{
			"sampler":0,
			"source":1
		},
		{
			"sampler":0,
			"source":2
		},
		{
			"sampler":0,
			"source":2
		},
		{
			"sampler":0,
			"source":3
		},
		{
			"sampler":0,
			"source":3
		}
	],
	"images":[
		{
			"mimeType":"image/png",
			"name":"Tyler,_the_Creator_-_Flower_Boy",
			"uri":"textures/Tyler_the_Creator_-_Flower_Boy.png"
		},
		{
			"mimeType":"image/jpeg",
			"name":"Scum_Fuck_Flower_Boy_alt_cover",
			"uri":"textures/Scum_Fuck_Flower_Boy_alt_cover.jpg"
		},
		{
			"mimeType":"image/jpeg",
			"name":"Tyler, The Creator Blue Bee Poster",
			"uri":"textures/Tyler%20The%20Creator%20Blue%20Bee%20Poster.jpg"
		},
		{
			"mimeType":"image/jpeg",
			"name":"1200px-12in-Vinyl-LP-Record-Angle",
			"uri":"textures/1200px-12in-Vinyl-LP-Record-Angle.jpg"
		}
	],
	"accessors":[
		{
			"bufferView":0,
			"componentType":5126,
			"count":280,
			"max":[
				0.15400001406669617,
				0.0010999999940395355,
				0.15400001406669617
			],
			"min":[
				-0.15400001406669617,
				-0.0009535533608868718,
				-0.15400001406669617
			],
			"type":"VEC3"
		},
		{
			"bufferView":1,
			"componentType":5126,
			"count":280,
			"type":"VEC3"
		},
		{
			"bufferView":2,
			"componentType":5126,
			"count":280,
			"type":"VEC2"
		},
		{
			"bufferView":3,
			"componentType":5123,
			"count":420,
			"type":"SCALAR"
		},
		{
			"bufferView":4,
			"componentType":5126,
			"count":60,
			"max":[
				0.15400001406669617,
				-0.000888675102032721,
				0.15385356545448303
			],
			"min":[
				-0.15385356545448303,
				-0.0010999999940395355,
				-0.15385356545448303
			],
			"type":"VEC3"
		},
		{
			"bufferView":5,
			"componentType":5126,
			"count":60,
			"type":"VEC3"
		},
		{
			"bufferView":6,
			"componentType":5126,
			"count":60,
			"type":"VEC2"
		},
		{
			"bufferView":7,
			"componentType":5123,
			"count":90,
			"type":"SCALAR"
		},
		{
			"bufferView":8,
			"componentType":5126,
			"count":256,
			"max":[
				0.05000000074505806,
				0.0010000000474974513,
				0.05000000074505806
			],
			"min":[
				-0.05000000074505806,
				0.0010000000474974513,
				-0.05000000074505806
			],
			"type":"VEC3"
		},
		{
			"bufferView":9,
			"componentType":5126,
			"count":256,
			"type":"VEC3"
		},
		{
			"bufferView":10,
			"componentType":5126,
			"count":256,
			"type":"VEC2"
		},
		{
			"bufferView":11,
			"componentType":5123,
			"count":768,
			"type":"SCALAR"
		},
		{
			"bufferView":12,
			"componentType":5126,
			"count":256,
			"max":[
				0.05000000074505806,
				-0.0010000000474974513,
				0.05000000074505806
			],
			"min":[
				-0.05000000074505806,
				-0.0010000000474974513,
				-0.05000000074505806
			],
			"type":"VEC3"
		},
		{
			"bufferView":13,
			"componentType":5126,
			"count":256,
			"type":"VEC3"
		},
		{
			"bufferView":14,
			"componentType":5126,
			"count":256,
			"type":"VEC2"
		},
		{
			"bufferView":15,
			"componentType":5123,
			"count":768,
			"type":"SCALAR"
		},
		{
			"bufferView":16,
			"componentType":5126,
			"count":1024,
			"max":[
				0.05000000074505806,
				0.0010000000474974513,
				0.05000000074505806
			],
			"min":[
				-0.05000000074505806,
				-0.0010000000474974513,
				-0.05000000074505806
			],
			"type":"VEC3"
		},
		{
			"bufferView":17,
			"componentType":5126,
			"count":1024,
			"type":"VEC3"
		},
		{
			"bufferView":18,
			"componentType":5126,
			"count":1024,
			"type":"VEC2"
		},
		{
			"bufferView":19,
			"componentType":5123,
			"count":1536,
			"type":"SCALAR"
		},
		{
			"bufferView":20,
			"componentType":5126,
			"count":2360,
			"max":[
				0.15000000596046448,
				0.0010000000474974513,
				0.15000000596046448
			],
			"min":[
				-0.15000000596046448,
				-0.0010000000474974513,
				-0.15000000596046448
			],
			"type":"VEC3"
		},
		{
			"bufferView":21,
			"componentType":5126,
			"count":2360,
			"type":"VEC3"
		},
		{
			"bufferView":22,
			"componentType":5126,
			"count":2360,
			"type":"VEC2"
		},
		{
			"bufferView":23,
			"componentType":5123,
			"count":4308,
			"type":"SCALAR"
		}
	],
	"bufferViews":[
		{
			"buffer":0,
			"byteLength":3360,
			"byteOffset":0,
			"target":34962
		},
		{
			"buffer":0,
			"byteLength":3360,
			"byteOffset":3360,
			"target":34962
		},
		{
			"buffer":0,
			"byteLength":2240,
			"byteOffset":6720,
			"target":34962
		},
		{
			"buffer":0,
			"byteLength":840,
			"byteOffset":8960,
			"target":34963
		},
		{
			"buffer":0,
			"byteLength":720,
			"byteOffset":9800,
			"target":34962
		},
		{
			"buffer":0,
			"byteLength":720,
			"byteOffset":10520,
			"target":34962
		},
		{
			"buffer":0,
			"byteLength":480,
			"byteOffset":11240,
			"target":34962
		},
		{
			"buffer":0,
			"byteLength":180,
			"byteOffset":11720,
			"target":34963
		},
		{
			"buffer":0,
			"byteLength":3072,
			"byteOffset":11900,
			"target":34962
		},
		{
			"buffer":0,
			"byteLength":3072,
			"byteOffset":14972,
			"target":34962
		},
		{
			"buffer":0,
			"byteLength":2048,
			"byteOffset":18044,
			"target":34962
		},
		{
			"buffer":0,
			"byteLength":1536,
			"byteOffset":20092,
			"target":34963
		},
		{
			"buffer":0,
			"byteLength":3072,
			"byteOffset":21628,
			"target":34962
		},
		{
			"buffer":0,
			"byteLength":3072,
			"byteOffset":24700,
			"target":34962
		},
		{
			"buffer":0,
			"byteLength":2048,
			"byteOffset":27772,
			"target":34962
		},
		{
			"buffer":0,
			"byteLength":1536,
			"byteOffset":29820,
			"target":34963
		},
		{
			"buffer":0,
			"byteLength":12288,
			"byteOffset":31356,
			"target":34962
		},
		{
			"buffer":0,
			"byteLength":12288,
			"byteOffset":43644,
			"target":34962
		},
		{
			"buffer":0,
			"byteLength":8192,
			"byteOffset":55932,
			"target":34962
		},
		{
			"buffer":0,
			"byteLength":3072,
			"byteOffset":64124,
			"target":34963
		},
		{
			"buffer":0,
			"byteLength":28320,
			"byteOffset":67196,
			"target":34962
		},
		{
			"buffer":0,
			"byteLength":28320,
			"byteOffset":95516,
			"target":34962
		},
		{
			"buffer":0,
			"byteLength":18880,
			"byteOffset":123836,
			"target":34962
		},
		{
			"buffer":0,
			"byteLength":8616,
			"byteOffset":142716,
			"target":34963
		}
	],
	"samplers":[
		{
			"magFilter":9729,
			"minFilter":9987
		}
	],
	"buffers":[
		{
			"byteLength":151332,
			"uri":"scene.bin"
		}
	]
}
