{
	"asset":{
		"generator":"Khronos glTF Blender I/O v4.4.56",
		"version":"2.0"
	},
	"scene":0,
	"scenes":[
		{
			"name":"Scene",
			"nodes":[
				10
			]
		}
	],
	"nodes":[
		{
			"mesh":0,
			"name":"Cassette_low_UV_test_0",
			"translation":[
				0.0010950587457045913,
				6.872846279293299e-05,
				0.002129347762092948
			]
		},
		{
			"name":"Glass_low",
			"translation":[
				-0.004476554691791534,
				-1.849978434620425e-05,
				0.012125018984079361
			]
		},
		{
			"name":"Screws_low",
			"rotation":[
				0,
				0.7071065902709961,
				0,
				0.7071070671081543
			],
			"translation":[
				6.248604040592909e-05,
				0.07043080776929855,
				-0.04234839975833893
			]
		},
		{
			"name":"Tape_01_low",
			"rotation":[
				-0.3142445981502533,
				0.6334432363510132,
				-0.3142445981502533,
				0.6334432363510132
			],
			"translation":[
				0.00032746780198067427,
				0.027810433879494667,
				0.01034147385507822
			]
		},
		{
			"name":"Tape_02_low",
			"rotation":[
				-0.3142445981502533,
				0.6334432363510132,
				-0.3142445981502533,
				0.6334432363510132
			],
			"translation":[
				0.00032746780198067427,
				-0.02771870233118534,
				0.010328232310712337
			]
		},
		{
			"name":"Wheel_01_low",
			"translation":[
				0,
				0.027658917009830475,
				0.011727788485586643
			]
		},
		{
			"name":"Wheel_02_low",
			"translation":[
				0,
				-0.027658922597765923,
				0.011727779172360897
			]
		},
		{
			"children":[
				0,
				1,
				2,
				3,
				4,
				5,
				6
			],
			"name":"Cassette_low",
			"rotation":[
				-0.70710688829422,
				0,
				0,
				0.7071066498756409
			],
			"scale":[
				2000,
				1999.9998779296875,
				1999.9998779296875
			],
			"translation":[
				-2.5335443019866943,
				44.9923095703125,
				-2.7727348804473877
			]
		},
		{
			"children":[
				7
			],
			"name":"RootNode",
			"translation":[
				0,
				-4.374999523162842,
				0
			]
		},
		{
			"children":[
				8
			],
			"name":"a615671473a94e2d99b8c1005597563b.fbx",
			"rotation":[
				0.70710688829422,
				0,
				0,
				0.7071066498756409
			],
			"scale":[
				0.009999999776482582,
				0.010000000707805157,
				0.010000000707805157
			]
		},
		{
			"children":[
				9
			],
			"name":"Sketchfab_model",
			"rotation":[
				-0.5,
				-0.5,
				-0.5,
				0.5
			],
			"scale":[
				8,
				8,
				8
			],
			"translation":[
				-0.2328149378299713,
				-3.9400806427001953,
				0.027474120259284973
			]
		}
	],
	"materials":[
		{
			"doubleSided":true,
			"name":"UV_test",
			"normalTexture":{
				"index":0
			},
			"pbrMetallicRoughness":{
				"baseColorTexture":{
					"index":1
				},
				"metallicRoughnessTexture":{
					"index":2
				}
			}
		}
	],
	"meshes":[
		{
			"name":"Cassette_low_UV_test_0",
			"primitives":[
				{
					"attributes":{
						"POSITION":0,
						"NORMAL":1,
						"TEXCOORD_0":2,
						"TEXCOORD_1":3
					},
					"indices":4,
					"material":0
				}
			]
		}
	],
	"textures":[
		{
			"sampler":0,
			"source":0
		},
		{
			"sampler":0,
			"source":1
		},
		{
			"sampler":0,
			"source":2
		}
	],
	"images":[
		{
			"mimeType":"image/png",
			"name":"UV_test_normal",
			"uri":"textures/UV_test_normal.png"
		},
		{
			"mimeType":"image/png",
			"name":"UV_test_baseColor",
			"uri":"textures/UV_test_baseColor.png"
		},
		{
			"mimeType":"image/png",
			"name":"UV_test_metallicRoughness",
			"uri":"textures/UV_test_metallicRoughness.png"
		}
	],
	"accessors":[
		{
			"bufferView":0,
			"componentType":5126,
			"count":3610,
			"max":[
				0.008087659254670143,
				0.07531318068504333,
				0.05113953724503517
			],
			"min":[
				-0.008087659254670143,
				-0.07531318068504333,
				-0.046927567571401596
			],
			"type":"VEC3"
		},
		{
			"bufferView":1,
			"componentType":5126,
			"count":3610,
			"type":"VEC3"
		},
		{
			"bufferView":2,
			"componentType":5126,
			"count":3610,
			"type":"VEC2"
		},
		{
			"bufferView":3,
			"componentType":5126,
			"count":3610,
			"type":"VEC2"
		},
		{
			"bufferView":4,
			"componentType":5123,
			"count":9822,
			"type":"SCALAR"
		}
	],
	"bufferViews":[
		{
			"buffer":0,
			"byteLength":43320,
			"byteOffset":0,
			"target":34962
		},
		{
			"buffer":0,
			"byteLength":43320,
			"byteOffset":43320,
			"target":34962
		},
		{
			"buffer":0,
			"byteLength":28880,
			"byteOffset":86640,
			"target":34962
		},
		{
			"buffer":0,
			"byteLength":28880,
			"byteOffset":115520,
			"target":34962
		},
		{
			"buffer":0,
			"byteLength":19644,
			"byteOffset":144400,
			"target":34963
		}
	],
	"samplers":[
		{
			"magFilter":9729,
			"minFilter":9987
		}
	],
	"buffers":[
		{
			"byteLength":164044,
			"uri":"scene.bin"
		}
	]
}
